<svg width="142" height="119" viewBox="0 0 142 119" fill="none" xmlns="http://www.w3.org/2000/svg">
<path d="M104.808 117.585L121.715 101.854L99.6379 95.0772L104.808 117.585ZM71.6474 118.002L83.0835 97.9389L59.9899 98.0667L71.6474 118.002ZM37.5683 118.467L42.489 95.9033L20.4879 102.924L37.5683 118.467ZM110.09 100.377L112.002 100.964L141.053 6.31809L139.141 5.73122L137.229 5.14436L108.178 99.7905L110.09 100.377ZM71.5478 100.003L73.5477 99.9917L73 0.988935L71 1L69 1.01107L69.5478 100.014L71.5478 100.003ZM32.0964 101.319L34.0018 100.711L3.90535 6.39202L2 7L0.0946503 7.60798L30.1911 101.927L32.0964 101.319Z" fill="#FFA01A"/>
</svg>
