<svg width="252" height="88" viewBox="0 0 252 88" fill="none" xmlns="http://www.w3.org/2000/svg">
<path d="M125.647 5.87028C159.824 5.72524 190.573 10.3879 212.614 17.8977C223.659 21.6609 232.246 26.0483 237.976 30.6886C243.745 35.3595 246.018 39.7604 246.034 43.6214C246.051 47.4823 243.815 51.9023 238.086 56.622C232.395 61.3108 223.846 65.77 212.834 69.6268C190.857 77.3235 160.149 82.247 125.972 82.3921C91.7953 82.5371 61.0456 77.8746 39.0043 70.3646C27.9598 66.6015 19.3738 62.2149 13.6431 57.5747C7.87457 52.9037 5.60074 48.5029 5.58425 44.642C5.56786 40.781 7.8043 36.3611 13.533 31.6413C19.2242 26.9525 27.7724 22.4923 38.7847 18.6356C60.7615 10.9388 91.4705 6.01535 125.647 5.87028Z" stroke="#FFA01A" stroke-width="10"/>
</svg>
